<svg id="Component_46_1" data-name="Component 46 – 1" xmlns="http://www.w3.org/2000/svg" width="234" height="238.586" viewBox="0 0 234 238.586">
  <ellipse id="Ellipse_240" data-name="Ellipse 240" cx="117" cy="118" rx="117" ry="118" fill="#b0c4de"/>
  <path id="Path_802" data-name="Path 802" d="M5263.9,10326.741v-31.929s-10.67,2.356-20.308,0c-6.592-1.611-16.487-7.747-18.245-9.428.005-2.4-1.289-6.628-4-11.851a18.211,18.211,0,0,0-6.905-7.4l-7.318-7.339a7.065,7.065,0,0,1,7.318-1.735c4.557,1.425,4.139-.012,10.908,5.414s7.815,12.742,15.509,16.287c10.137,4.671,23.044,0,23.044,0s.356-6.659,2.29-10.227a21.257,21.257,0,0,1,5.272-6.061s-38.953-3.952-50.118-33.966,8.843-55.146,8.843-55.146a38.412,38.412,0,0,1-2.419-13.525c0-7.761,2.419-17.519,2.419-17.519s4.977-1.291,13.4,1.824,20.308,10.635,20.308,10.635,14.1-4.676,28.316-4.676,28.55,4.676,28.55,4.676,9.74-7.52,18.093-10.635a31.556,31.556,0,0,1,15.319-1.824,39.286,39.286,0,0,1,3.105,12.459,133.929,133.929,0,0,1,0,18.585s18.145,28.333,5.843,57.561-49.839,31.551-49.839,31.551,5.621,1.146,7.479,14.487,4.682,48.036,4.682,48.036a101.127,101.127,0,0,1-30.414,5.086A160.781,160.781,0,0,1,5263.9,10326.741Z" transform="translate(-5176 -10094)" fill="none" stroke="#fff" stroke-width="5"/>
</svg>
